<?xml version="1.0" encoding="utf-8"?>
<svg viewBox="0 0 1600 1690" xmlns="http://www.w3.org/2000/svg">
  <g transform="matrix(0.10000000149011612, 0, 0, -0.10000000149011612, -145.4110870361328, 1693.2313232421875)" fill="#000000" stroke="none">
    <path d="M 5750 13477 C 5679.608 13499.688 5512.681 13544.943 5342.763 13522.107 C 5220.604 13505.689 5086.445 13433.169 5034.405 13389.571 C 4916.614 13290.89 4853.665 13115.65 4834.331 13014.459 C 4786.427 12763.734 4812 12382 4812 12382 C 4814.515 12139.678 4805.822 11848.711 4893.016 11675.069 C 5013.802 11434.529 5249.982 11350.522 5340 11318 C 5355.518 11312.31 5907.833 11115.423 6385.468 10880.644 C 6831.213 10661.541 7310.615 10440.667 7324.94 10313.977 C 7329.818 10270.833 7153.05 9988.289 7173.733 9872.008 C 7201.526 9715.753 7310.293 9656.338 7238.534 9578.429 C 6661.507 8951.939 3841.648 6499.055 3370.657 6037.87 C 3356.302 6023.814 3287.354 5859.775 3320.786 5705.234 C 3382.033 5422.11 3602.152 5047.695 3825.334 4815.267 C 4075.507 4554.73 4438.062 4300.195 4733.402 4225.609 C 4908.978 4181.269 5111.495 4268.12 5113.463 4269.7 C 5437.386 4529.742 8858 8159 8869 8155 C 9009 8099 9187 8097 9330 8150 C 9377 8167 9431 8193 9450 8208 C 9513 8256 9548.425 8305.556 9560 8323 C 9579.871 8352.948 9588.827 8338.832 9597.254 8335.546 C 9629.725 8322.883 10252.967 7704.657 10677.95 7010.697 C 11144.802 6248.37 11377.906 5420.758 11380 5415 C 11484 5158 11564 5045 11682 4987 C 11721.104 4967.448 11945.254 4906.831 12164.863 4956.411 C 12383.305 5005.727 12517.882 5144.597 12581.899 5296.625 C 12651.426 5461.738 12632.564 5688.042 12581.449 5936.597 C 12482.644 6417.057 12237.175 7170.542 11907.809 7880.572 C 11390.305 8996.179 10732.456 10033.086 10722 10045 C 10699 10071 10680 10097 10680 10103 C 10680 10115 10981.598 10363.493 10903.321 10573.135 C 10825.784 10780.794 10568.14 11078.819 10401.251 11233.964 C 10222.879 11399.785 9958.934 11636.035 9750.406 11716.346 C 9614.595 11768.651 9495.684 11701.968 9461.904 11688 C 9364.848 11647.87 9287.747 11573.269 9269 11559 C 9241.992 11538.444 9246.732 11514.858 9148 11596.375 C 9061.431 11667.849 8402.765 12152.912 7624.179 12585.195 C 6743.112 13074.378 5798.31 13461.074 5750 13477 Z M 5432 11874 C 5397.058 11906.372 5365.239 12142.933 5365.274 12424.094 C 5365.307 12690.1 5392.219 13002.559 5527.833 12996.357 C 5999.848 12974.77 7050.186 12329.413 7711.767 11923.666 C 8218.644 11612.799 9182.291 11000.389 9895.384 10216.301 C 10602.966 9438.271 11060.788 8489.675 11364.239 7890.609 C 11902.638 6827.713 12204.658 5585.203 12174.545 5469.945 C 12162.431 5423.576 12135.67 5411.046 12017.015 5387.788 C 11900.844 5365.017 11909.321 5416.938 11867.068 5562.988 C 11765.104 5915.436 11476.873 6661.594 11077.786 7309.503 C 10682.227 7951.682 10134.837 8686.379 9825.355 8967.871 C 9786.794 9002.944 9731.38 9055.848 9612.976 9052.995 C 9489.528 9050.02 9427.675 9000.452 9358.824 8925.609 C 9258.519 8816.574 9272.122 8643.492 9183.777 8624.914 C 9115.665 8610.591 9036 8674 9005 8774 C 8935 8994 8814 9182 8651 9324 C 8638 9336 8613 9359 8596 9376 C 8554 9418 8442 9512 8398 9541 C 8147 9711 8073 9751 7923 9800 C 7874 9815 7813 9831 7785 9835 C 7691 9849 7722.774 9881.804 7743 9954 C 7747.481 9969.993 7777.682 10072.745 7832.225 10123.704 C 7884.501 10172.544 7960.893 10170 7979 10170 C 8026 10170 8257 10133 8360 10109 C 8456 10087 8579 10061 8628 10053 C 8657 10048 8661.76 10051.751 8660 10073 C 8657.409 10104.285 8016.196 10597.233 7255.325 11013.745 C 6415.523 11473.466 5447.74 11859.834 5432 11874 Z M 9734.122 11233.061 C 9817.56 11225.208 9953.48 11117.6 10106.972 10965.95 C 10266.384 10808.452 10400.245 10672.074 10386.305 10600.275 C 10372.779 10530.608 10297 10480 10281 10461 C 10241 10413 10215 10423 10122 10523 C 9993 10660 9669 10979 9608 11027 C 9569 11058 9550 11080 9550 11095 C 9550 11139 9651.089 11236.233 9734.122 11233.061 Z M 7577.144 9245.431 C 7577.144 9245.431 7960.251 9175.324 8149.227 8982.428 C 8353.945 8773.464 8404.426 8493.266 8387 8445 C 8334.09 8298.45 4892.106 4876.618 4871.159 4860.37 C 4837.752 4834.457 4763.719 4795.733 4680.158 4818.08 C 4535.68 4856.719 4348.749 5007.453 4197.504 5175.02 C 4068.856 5317.552 3913.511 5509.979 3885.703 5654.425 C 3866.524 5754.052 3907.421 5819.1 3961.542 5874.697 C 3979.209 5892.846 7544.144 9217.431 7577.144 9245.431 Z" style="" transform="matrix(1, 0, 0, 1, 0, 0.001000000049)"/>
  </g>
</svg>