<?xml version="1.0" encoding="utf-8"?>
<svg viewBox="350.473 -522.917 388.1723 420.984" xmlns="http://www.w3.org/2000/svg">
  <path d="M 443.459 -522.917 C 447.105 -521.705 555.372 -434.762 558.295 -432.265 C 560.341 -430.727 601.417 -453.18 604.514 -452.902 C 605.314 -450.095 592.755 -415.642 591.654 -413.079 C 592.084 -413.478 600.266 -423.062 607.834 -428.981 C 615.17 -434.718 620.744 -438.625 622.102 -438.664 C 624.01 -437.546 624.389 -405.078 631.013 -378.79 C 637.355 -353.621 650.159 -332.612 650.159 -331.637 C 651.809 -330.977 724.517 -307.666 733.819 -293.046 C 740.601 -282.69 741.099 -140.548 729.695 -122.656 C 716.38 -101.767 428.138 -89.754 382.514 -120.902 C 383.116 -122.198 426.772 -157.215 422.901 -165.569 C 414.588 -183.506 368.453 -204.023 367.514 -205.902 C 367.299 -207.837 405.106 -249.67 448.4 -290.082 C 483.568 -322.911 528.231 -359.799 529.521 -360.714 C 537.257 -366.917 532.914 -379.472 534.652 -388.909 C 522.111 -387.298 507.228 -361.48 495.116 -354.12 C 494.786 -353.13 510.799 -355.735 516.239 -355.735 C 513.068 -352.564 468.891 -319.266 462.514 -314.902 C 460.897 -318.135 473.327 -335.593 473.821 -337.337 C 462.263 -331.135 426.266 -320.018 426.489 -310.338 C 428.187 -310.264 447.287 -308.128 449.514 -305.902 C 443.211 -300.895 416.887 -282.355 411.448 -282.534 C 409.514 -282.902 403.643 -296.269 403.514 -296.902 C 402.694 -296.791 356.514 -290.902 354.514 -291.902 C 354.631 -293.605 379.333 -316.498 393.514 -322.902 C 392.718 -327.581 348.948 -461.936 350.514 -466.902 C 352.095 -468.895 423.399 -470.7 431.424 -471.154 C 431.645 -472.025 438.753 -522.892 443.459 -522.917 Z" fill="#222223"/>
</svg>