<?xml version="1.0" encoding="utf-8"?>
<svg viewBox="0 0 874.2362204724409 211.49081364829397" fill="none" stroke="none" stroke-linecap="square" stroke-miterlimit="10" xmlns="http://www.w3.org/2000/svg">
  <clipPath id="p.0">
    <path d="m0 0l874.2362 0l0 211.49081l-874.2362 0l0 -211.49081z" clip-rule="nonzero"/>
  </clipPath>
  <g clip-path="url(#p.0)" transform="matrix(0.9999999999999999, 0, 0, 0.9999999999999999, -2.842170943040401e-14, -1.1368683772161603e-13)">
    <path fill="#000000" fill-opacity="0.0" d="m0 0l874.2362 0l0 211.49081l-874.2362 0z" fill-rule="evenodd"/>
    <path fill="#000000" fill-opacity="0.0" d="M 16.092 12.47 L 216.092 12.47 L 216.092 229.48 L 16.092 229.48 L 16.092 12.47 Z" fill-rule="evenodd"/>
    <g transform="matrix(0.687249, 0, 0, 0.687245, -22.054935, -57.386436)">
      <path d="M 118.24 100.565 C 120.55 101.334 189.138 156.437 190.988 158.02 C 192.285 158.994 218.306 144.764 220.269 144.94 C 220.775 146.719 212.819 168.555 212.122 170.18 C 212.394 169.927 217.578 163.852 222.371 160.102 C 227.018 156.465 230.551 153.989 231.411 153.964 C 232.619 154.673 232.86 175.251 237.056 191.912 C 241.074 207.862 249.185 221.179 249.185 221.797 C 250.23 222.215 296.292 236.989 302.183 246.255 C 306.48 252.818 306.796 342.907 299.57 354.247 C 291.137 367.486 108.534 375.1 79.631 355.358 C 80.012 354.537 107.668 332.343 105.216 327.049 C 99.95 315.68 70.724 302.677 70.128 301.486 C 69.992 300.26 93.943 273.746 121.37 248.133 C 143.649 227.327 171.943 203.948 172.76 203.367 C 177.662 199.436 174.91 191.48 176.011 185.498 C 168.066 186.52 158.638 202.883 150.965 207.547 C 150.755 208.174 160.9 206.524 164.345 206.524 C 162.338 208.533 134.351 229.638 130.312 232.403 C 129.287 230.354 137.162 219.29 137.475 218.184 C 130.153 222.114 107.348 229.161 107.49 235.296 C 108.565 235.343 120.666 236.696 122.076 238.108 C 118.082 241.282 101.406 253.03 97.961 252.918 C 96.735 252.684 93.016 244.213 92.934 243.812 C 92.415 243.883 63.161 247.615 61.893 246.981 C 61.967 245.901 77.616 231.391 86.6 227.334 C 86.095 224.368 58.367 139.215 59.359 136.067 C 60.36 134.804 105.532 133.661 110.616 133.373 C 110.755 132.82 115.258 100.581 118.24 100.565 Z" style="transform-origin: 182.286px 233.973px; fill: rgb(246, 246, 246);"/>
    </g>
    <path fill="#000000" fill-opacity="0.0" d="M -30.23 -80.603 L 269.77 -80.603 L 269.77 21.26 L -30.23 21.26 L -30.23 -80.603 Z" fill-rule="evenodd"/>
    <path d="m203.24512 44.320847l32.390625 0q16.40625 0 24.609375 8.796875q8.203125 8.796875 8.203125 25.796875l0 13.8125q0 17.0 -8.203125 25.796875q-8.203125 8.796875 -24.609375 8.796875l-10.390625 0l0 57.0l-22.0 0l0 -140.0zm32.390625 63.0q5.40625 0 8.109375 -3.0q2.703125 -3.0 2.703125 -10.203125l0 -16.59375q0 -7.203125 -2.703125 -10.203125q-2.703125 -3.0 -8.109375 -3.0l-10.390625 0l0 43.0l10.390625 0zm44.809387 -63.0l22.0 0l0 140.0l-22.0 0l0 -140.0zm69.400024 142.0q-15.796875 0 -24.109375 -9.0q-8.296875 -9.0 -8.296875 -25.40625l0 -75.1875q0 -16.40625 8.296875 -25.40625q8.3125 -9.0 24.109375 -9.0q15.796875 0 24.09375 9.0q8.296875 9.0 8.296875 25.40625l0 14.796875l-20.796875 0l0 -16.203125q0 -13.0 -11.0 -13.0q-11.0 0 -11.0 13.0l0 78.203125q0 12.796875 11.0 12.796875q11.0 0 11.0 -12.796875l0 -21.40625l20.796875 0l0 19.796875q0 16.40625 -8.296875 25.40625q-8.296875 9.0 -24.09375 9.0zm45.600006 -142.0l22.0 0l0 59.0l28.0 -59.0l22.0 0l-26.203125 51.40625l26.59375 88.59375l-23.0 0l-18.59375 -62.40625l-8.796875 17.8125l0 44.59375l-22.0 0l0 -140.0zm82.80002 0l32.390625 0q16.40625 0 24.609375 8.796875q8.203125 8.796875 8.203125 25.796875l0 13.8125q0 17.0 -8.203125 25.796875q-8.203125 8.796875 -24.609375 8.796875l-10.390625 0l0 57.0l-22.0 0l0 -140.0zm32.390625 63.0q5.40625 0 8.109375 -3.0q2.703125 -3.0 2.703125 -10.203125l0 -16.59375q0 -7.203125 -2.703125 -10.203125q-2.703125 -3.0 -8.109375 -3.0l-10.390625 0l0 43.0l10.390625 0zm76.60626 79.0q-16.203125 0 -24.8125 -9.203125q-8.59375 -9.203125 -8.59375 -26.0l0 -73.59375q0 -16.796875 8.59375 -26.0q8.609375 -9.203125 24.8125 -9.203125q16.203125 0 24.796875 9.203125q8.609375 9.203125 8.609375 26.0l0 73.59375q0 16.796875 -8.609375 26.0q-8.59375 9.203125 -24.796875 9.203125zm0 -20.0q11.40625 0 11.40625 -13.796875l0 -76.40625q0 -13.796875 -11.40625 -13.796875q-11.40625 0 -11.40625 13.796875l0 76.40625q0 13.796875 11.40625 13.796875zm79.203125 20.0q-15.796875 0 -24.109375 -9.0q-8.296875 -9.0 -8.296875 -25.40625l0 -75.1875q0 -16.40625 8.296875 -25.40625q8.3125 -9.0 24.109375 -9.0q15.796875 0 24.09375 9.0q8.296875 9.0 8.296875 25.40625l0 14.796875l-20.796875 0l0 -16.203125q0 -13.0 -11.0 -13.0q-11.0 0 -11.0 13.0l0 78.203125q0 12.796875 11.0 12.796875q11.0 0 11.0 -12.796875l0 -21.40625l20.796875 0l0 19.796875q0 16.40625 -8.296875 25.40625q-8.296875 9.0 -24.09375 9.0zm45.600037 -142.0l22.0 0l0 59.0l28.0 -59.0l22.0 0l-26.203125 51.40625l26.59375 88.59375l-23.0 0l-18.59375 -62.40625l-8.796875 17.8125l0 44.59375l-22.0 0l0 -140.0zm100.00311 20.0l-23.0 0l0 -20.0l68.0 0l0 20.0l-23.0 0l0 120.0l-22.0 0l0 -120.0z" fill-rule="nonzero" style="fill: rgb(246, 246, 246);"/>
  </g>
</svg>