<?xml version="1.0" encoding="utf-8"?>
<svg viewBox="350.5 -522.9 388.2 421.068" xmlns="http://www.w3.org/2000/svg">
  <path d="M 466.195 -477.834 C 468.776 -476.976 545.478 -415.38 547.549 -413.612 C 548.998 -412.522 578.099 -428.429 580.293 -428.233 C 580.86 -426.244 571.962 -401.835 571.182 -400.02 C 571.486 -400.302 577.283 -407.092 582.644 -411.285 C 587.841 -415.35 591.79 -418.118 592.753 -418.146 C 594.105 -417.354 594.373 -394.351 599.066 -375.728 C 603.559 -357.897 612.63 -343.013 612.63 -342.323 C 613.799 -341.855 665.309 -325.34 671.898 -314.982 C 676.704 -307.647 677.056 -206.946 668.976 -194.27 C 659.544 -179.471 455.34 -170.961 423.018 -193.028 C 423.444 -193.945 454.372 -218.752 451.629 -224.673 C 445.74 -237.38 413.056 -251.915 412.391 -253.246 C 412.238 -254.617 439.023 -284.254 469.694 -312.883 C 494.609 -336.141 526.25 -362.274 527.164 -362.922 C 532.645 -367.316 529.568 -376.211 530.799 -382.896 C 521.914 -381.755 511.371 -363.465 502.79 -358.251 C 502.556 -357.549 513.901 -359.395 517.754 -359.395 C 515.509 -357.148 484.211 -333.558 479.693 -330.466 C 478.548 -332.756 487.354 -345.125 487.703 -346.361 C 479.516 -341.967 454.013 -334.091 454.172 -327.233 C 455.374 -327.181 468.906 -325.667 470.483 -324.09 C 466.019 -320.543 447.369 -307.409 443.515 -307.535 C 442.146 -307.796 437.986 -317.266 437.895 -317.714 C 437.314 -317.636 404.598 -313.464 403.181 -314.172 C 403.264 -315.378 420.765 -331.598 430.81 -336.133 C 430.247 -339.449 399.238 -434.632 400.347 -438.15 C 401.468 -439.563 451.983 -440.841 457.668 -441.163 C 457.825 -441.78 462.86 -477.816 466.195 -477.834 Z" fill="#222223" transform="matrix(1, 0, 0, 1, 0, -1.1368683772161603e-13)"/>
</svg>