<svg width="654" height="602" viewBox="0 0 654 602" fill="none" xmlns="http://www.w3.org/2000/svg">
<path d="M0 460H32.3906C43.3281 460 51.5312 462.932 57 468.797C62.4688 474.661 65.2031 483.26 65.2031 494.594V508.406C65.2031 519.74 62.4688 528.339 57 534.203C51.5312 540.068 43.3281 543 32.3906 543H22V600H0V460ZM32.3906 523C35.9948 523 38.6979 522 40.5 520C42.3021 518 43.2031 514.599 43.2031 509.797V493.203C43.2031 488.401 42.3021 485 40.5 483C38.6979 481 35.9948 480 32.3906 480H22V523H32.3906ZM77.2 460H99.2V600H77.2V460ZM146.6 602C136.069 602 128.032 599 122.491 593C116.959 587 114.194 578.531 114.194 567.594V492.406C114.194 481.469 116.959 473 122.491 467C128.032 461 136.069 458 146.6 458C157.131 458 165.163 461 170.694 467C176.225 473 178.991 481.469 178.991 492.406V507.203H158.194V491C158.194 482.333 154.527 478 147.194 478C139.86 478 136.194 482.333 136.194 491V569.203C136.194 577.734 139.86 582 147.194 582C154.527 582 158.194 577.734 158.194 569.203V547.797H178.991V567.594C178.991 578.531 176.225 587 170.694 593C165.163 599 157.131 602 146.6 602ZM192.2 460H214.2V519L242.2 460H264.2L237.997 511.406L264.591 600H241.591L222.997 537.594L214.2 555.406V600H192.2V460ZM275 460H307.391C318.328 460 326.531 462.932 332 468.797C337.469 474.661 340.203 483.26 340.203 494.594V508.406C340.203 519.74 337.469 528.339 332 534.203C326.531 540.068 318.328 543 307.391 543H297V600H275V460ZM307.391 523C310.995 523 313.698 522 315.5 520C317.302 518 318.203 514.599 318.203 509.797V493.203C318.203 488.401 317.302 485 315.5 483C313.698 481 310.995 480 307.391 480H297V523H307.391ZM383.997 602C373.195 602 364.924 598.932 359.184 592.797C353.455 586.661 350.591 577.995 350.591 566.797V493.203C350.591 482.005 353.455 473.339 359.184 467.203C364.924 461.068 373.195 458 383.997 458C394.799 458 403.065 461.068 408.794 467.203C414.533 473.339 417.403 482.005 417.403 493.203V566.797C417.403 577.995 414.533 586.661 408.794 592.797C403.065 598.932 394.799 602 383.997 602ZM383.997 582C391.601 582 395.403 577.401 395.403 568.203V491.797C395.403 482.599 391.601 478 383.997 478C376.393 478 372.591 482.599 372.591 491.797V568.203C372.591 577.401 376.393 582 383.997 582ZM463.2 602C452.669 602 444.632 599 439.091 593C433.559 587 430.794 578.531 430.794 567.594V492.406C430.794 481.469 433.559 473 439.091 467C444.632 461 452.669 458 463.2 458C473.731 458 481.763 461 487.294 467C492.825 473 495.591 481.469 495.591 492.406V507.203H474.794V491C474.794 482.333 471.127 478 463.794 478C456.46 478 452.794 482.333 452.794 491V569.203C452.794 577.734 456.46 582 463.794 582C471.127 582 474.794 577.734 474.794 569.203V547.797H495.591V567.594C495.591 578.531 492.825 587 487.294 593C481.763 599 473.731 602 463.2 602ZM508.8 460H530.8V519L558.8 460H580.8L554.597 511.406L581.191 600H558.191L539.597 537.594L530.8 555.406V600H508.8V460ZM608.803 480H585.803V460H653.803V480H630.803V600H608.803V480Z" fill="black"/>
<path d="M225.986 0C229.632 1.212 337.899 88.155 340.822 90.652C342.868 92.19 383.944 69.737 387.041 70.015C387.841 72.822 375.282 107.275 374.181 109.838C374.611 109.439 382.793 99.855 390.361 93.936C397.697 88.199 403.271 84.292 404.629 84.253C406.537 85.371 406.916 117.839 413.54 144.127C419.882 169.296 432.686 190.305 432.686 191.28C434.336 191.94 507.044 215.251 516.346 229.871C523.128 240.227 523.626 382.369 512.222 400.261C498.907 421.15 210.665 433.163 165.041 402.015C165.643 400.719 209.299 365.702 205.428 357.348C197.115 339.411 150.98 318.894 150.041 317.015C149.826 315.08 187.633 273.247 230.927 232.835C266.095 200.006 310.758 163.118 312.048 162.203C319.784 156 315.441 143.445 317.179 134.008C304.638 135.619 289.755 161.437 277.643 168.797C277.313 169.787 293.326 167.182 298.766 167.182C295.595 170.353 251.418 203.651 245.041 208.015C243.424 204.782 255.854 187.324 256.348 185.58C244.79 191.782 208.793 202.899 209.016 212.579C210.714 212.653 229.814 214.789 232.041 217.015C225.738 222.022 199.414 240.562 193.975 240.383C192.041 240.015 186.17 226.648 186.041 226.015C185.221 226.126 139.041 232.015 137.041 231.015C137.158 229.312 161.86 206.419 176.041 200.015C175.245 195.336 131.475 60.981 133.041 56.015C134.622 54.022 205.926 52.217 213.951 51.763C214.172 50.892 221.28 0.025 225.986 0Z" fill="black"/>
</svg>
