<svg width="875" height="212" viewBox="0 0 875 212" fill="none" xmlns="http://www.w3.org/2000/svg">
<g clip-path="url(#clip0_1_41)">
<mask id="mask0_1_41" style="mask-type:luminance" maskUnits="userSpaceOnUse" x="0" y="0" width="875" height="212">
<path d="M0.5 0H874.736V211.491H0.5V0Z" fill="white"/>
</mask>
<g mask="url(#mask0_1_41)">
<path d="M59.7054 11.7264C61.2929 12.2549 108.43 50.1241 109.701 51.212C110.593 51.8814 128.476 42.1019 129.825 42.2229C130.172 43.4455 124.705 58.4522 124.226 59.5689C124.413 59.3951 127.975 55.2201 131.269 52.6429C134.463 50.1434 136.891 48.4418 137.482 48.4246C138.312 48.9118 138.478 63.054 141.362 74.5042C144.123 85.4657 149.697 94.6177 149.697 95.0425C150.415 95.3297 182.071 105.483 186.12 111.851C189.073 116.361 189.29 178.275 184.324 186.068C178.529 195.167 53.035 200.399 33.1714 186.832C33.4332 186.267 52.4398 171.015 50.7547 167.376C47.1356 159.563 27.0501 150.627 26.6405 149.808C26.547 148.966 43.0073 130.744 61.8565 113.142C77.1677 98.8429 96.6127 82.7758 97.1742 82.3765C100.543 79.675 98.6518 74.2073 99.4085 70.0962C93.9483 70.7985 87.4689 82.0439 82.1956 85.2492C82.0513 85.6801 89.0234 84.5462 91.391 84.5462C90.0117 85.9268 70.7777 100.431 68.0019 102.331C67.2974 100.923 72.7095 93.3195 72.9246 92.5595C67.8926 95.2603 52.2199 100.103 52.3175 104.32C53.0563 104.352 61.3727 105.282 62.3417 106.252C59.5968 108.433 48.1362 116.507 45.7687 116.43C44.9261 116.269 42.3702 110.448 42.3139 110.172C41.9572 110.221 21.8524 112.786 20.981 112.35C21.0318 111.608 31.7866 101.636 37.9608 98.8477C37.6138 96.8094 18.5577 38.2884 19.2395 36.125C19.9274 35.257 50.9718 34.4714 54.4658 34.2735C54.5613 33.8935 57.656 11.7374 59.7054 11.7264Z" fill="white"/>
<path d="M203.745 44.3209H236.136C247.073 44.3209 255.276 47.2532 260.745 53.1177C266.214 58.9823 268.948 67.5813 268.948 78.9146V92.7271C268.948 104.06 266.214 112.659 260.745 118.524C255.276 124.389 247.073 127.321 236.136 127.321H225.745V184.321H203.745V44.3209ZM236.136 107.321C239.74 107.321 242.443 106.321 244.245 104.321C246.047 102.321 246.948 98.9198 246.948 94.1177V77.524C246.948 72.7219 246.047 69.3209 244.245 67.3209C242.443 65.3209 239.74 64.3209 236.136 64.3209H225.745V107.321H236.136ZM280.945 44.3209H302.945V184.321H280.945V44.3209ZM350.345 186.321C339.814 186.321 331.777 183.321 326.236 177.321C320.705 171.321 317.939 162.852 317.939 151.915V76.7271C317.939 65.7896 320.705 57.3209 326.236 51.3209C331.777 45.3209 339.814 42.3209 350.345 42.3209C360.876 42.3209 368.908 45.3209 374.439 51.3209C379.97 57.3209 382.736 65.7896 382.736 76.7271V91.524H361.939V75.3209C361.939 66.6542 358.272 62.3209 350.939 62.3209C343.606 62.3209 339.939 66.6542 339.939 75.3209V153.524C339.939 162.055 343.606 166.321 350.939 166.321C358.272 166.321 361.939 162.055 361.939 153.524V132.118H382.736V151.915C382.736 162.852 379.97 171.321 374.439 177.321C368.908 183.321 360.876 186.321 350.345 186.321ZM395.945 44.3209H417.945V103.321L445.945 44.3209H467.945L441.742 95.7271L468.336 184.321H445.336L426.742 121.915L417.945 139.727V184.321H395.945V44.3209ZM478.745 44.3209H511.136C522.073 44.3209 530.276 47.2532 535.745 53.1177C541.214 58.9823 543.948 67.5813 543.948 78.9146V92.7271C543.948 104.06 541.214 112.659 535.745 118.524C530.276 124.389 522.073 127.321 511.136 127.321H500.745V184.321H478.745V44.3209ZM511.136 107.321C514.74 107.321 517.443 106.321 519.245 104.321C521.047 102.321 521.948 98.9198 521.948 94.1177V77.524C521.948 72.7219 521.047 69.3209 519.245 67.3209C517.443 65.3209 514.74 64.3209 511.136 64.3209H500.745V107.321H511.136ZM587.742 186.321C576.94 186.321 568.669 183.253 562.93 177.118C557.2 170.982 554.336 162.316 554.336 151.118V77.524C554.336 66.3261 557.2 57.6594 562.93 51.524C568.669 45.3886 576.94 42.3209 587.742 42.3209C598.544 42.3209 606.81 45.3886 612.539 51.524C618.279 57.6594 621.148 66.3261 621.148 77.524V151.118C621.148 162.316 618.279 170.982 612.539 177.118C606.81 183.253 598.544 186.321 587.742 186.321ZM587.742 166.321C595.346 166.321 599.148 161.722 599.148 152.524V76.1177C599.148 66.9198 595.346 62.3209 587.742 62.3209C580.138 62.3209 576.336 66.9198 576.336 76.1177V152.524C576.336 161.722 580.138 166.321 587.742 166.321ZM666.945 186.321C656.414 186.321 648.377 183.321 642.836 177.321C637.305 171.321 634.539 162.852 634.539 151.915V76.7271C634.539 65.7896 637.305 57.3209 642.836 51.3209C648.377 45.3209 656.414 42.3209 666.945 42.3209C677.476 42.3209 685.508 45.3209 691.039 51.3209C696.57 57.3209 699.336 65.7896 699.336 76.7271V91.524H678.539V75.3209C678.539 66.6542 674.872 62.3209 667.539 62.3209C660.206 62.3209 656.539 66.6542 656.539 75.3209V153.524C656.539 162.055 660.206 166.321 667.539 166.321C674.872 166.321 678.539 162.055 678.539 153.524V132.118H699.336V151.915C699.336 162.852 696.57 171.321 691.039 177.321C685.508 183.321 677.476 186.321 666.945 186.321ZM712.545 44.3209H734.545V103.321L762.545 44.3209H784.545L758.342 95.7271L784.936 184.321H761.936L743.342 121.915L734.545 139.727V184.321H712.545V44.3209ZM812.548 64.3209H789.548V44.3209H857.548V64.3209H834.548V184.321H812.548V64.3209Z" fill="white"/>
</g>
</g>
<defs>
<clipPath id="clip0_1_41">
<rect width="874.236" height="211.491" fill="white" transform="translate(0.5)"/>
</clipPath>
</defs>
</svg>
