<svg width="512" height="512" viewBox="0 0 512 512" fill="none" xmlns="http://www.w3.org/2000/svg">
<path d="M133.067 0C137.5 1.47403 269.148 107.214 272.702 110.251C275.19 112.121 325.137 84.814 328.902 85.1521C329.875 88.566 314.604 130.468 313.265 133.585C313.788 133.099 323.737 121.443 332.939 114.245C341.86 107.267 348.637 102.516 350.289 102.468C352.609 103.828 353.07 143.316 361.124 175.287C368.836 205.897 384.405 231.449 384.405 232.634C386.411 233.437 474.821 261.788 486.132 279.569C494.378 292.164 494.984 465.036 481.117 486.797C464.927 512.202 114.437 526.812 58.9605 488.93C59.6925 487.354 112.776 444.766 108.069 434.606C97.961 412.791 41.8629 387.838 40.7211 385.553C40.4597 383.2 86.4313 332.322 139.075 283.173C181.838 243.247 236.146 198.384 237.714 197.271C247.121 189.727 241.84 174.458 243.953 162.98C228.704 164.94 210.607 196.339 195.879 205.291C195.478 206.495 214.949 203.326 221.564 203.326C217.708 207.183 163.991 247.68 156.237 252.987C154.271 249.055 169.385 227.823 169.986 225.702C155.932 233.245 112.161 246.765 112.432 258.538C114.497 258.628 137.722 261.226 140.429 263.933C132.765 270.023 100.756 292.571 94.1429 292.353C91.7912 291.906 84.6524 275.649 84.4955 274.879C83.4984 275.014 27.3456 282.176 24.9137 280.96C25.056 278.889 55.0925 251.046 72.336 243.258C71.3681 237.567 18.1457 74.165 20.0499 68.1253C21.9723 65.7014 108.675 63.5062 118.433 62.9541C118.702 61.8948 127.345 0.030405 133.067 0Z" fill="black"/>
</svg>
