<svg width="389" height="421" viewBox="0 0 389 421" fill="none" xmlns="http://www.w3.org/2000/svg">
<path d="M92.986 0C96.632 1.212 204.899 88.155 207.822 90.652C209.868 92.19 250.944 69.737 254.041 70.015C254.841 72.822 242.282 107.275 241.181 109.838C241.611 109.439 249.793 99.855 257.361 93.936C264.697 88.199 270.271 84.292 271.629 84.253C273.537 85.371 273.916 117.839 280.54 144.127C286.882 169.296 299.686 190.305 299.686 191.28C301.336 191.94 374.044 215.251 383.346 229.871C390.128 240.227 390.626 382.369 379.222 400.261C365.907 421.15 77.665 433.163 32.041 402.015C32.643 400.719 76.299 365.702 72.428 357.348C64.115 339.411 17.98 318.894 17.041 317.015C16.826 315.08 54.633 273.247 97.927 232.835C133.095 200.006 177.758 163.118 179.048 162.203C186.784 156 182.441 143.445 184.179 134.008C171.638 135.619 156.755 161.437 144.643 168.797C144.313 169.787 160.326 167.182 165.766 167.182C162.595 170.353 118.418 203.651 112.041 208.015C110.424 204.782 122.854 187.324 123.348 185.58C111.79 191.782 75.793 202.899 76.016 212.579C77.714 212.653 96.814 214.789 99.041 217.015C92.738 222.022 66.414 240.562 60.975 240.383C59.041 240.015 53.17 226.648 53.041 226.015C52.221 226.126 6.04104 232.015 4.04104 231.015C4.15804 229.312 28.86 206.419 43.041 200.015C42.245 195.336 -1.52496 60.981 0.0410365 56.015C1.62204 54.022 72.926 52.217 80.951 51.763C81.172 50.892 88.28 0.025 92.986 0Z" fill="white"/>
</svg>
